<?xml version="1.0" encoding="UTF-8" standalone="no"?>
<!-- Created with Inkscape (http://www.inkscape.org/) -->

<svg
   xmlns:dc="http://purl.org/dc/elements/1.1/"
   xmlns:cc="http://creativecommons.org/ns#"
   xmlns:rdf="http://www.w3.org/1999/02/22-rdf-syntax-ns#"
   xmlns:svg="http://www.w3.org/2000/svg"
   xmlns="http://www.w3.org/2000/svg"
   version="1.1"
   width="744.09998"
   height="1052.3625"
   id="svg2"
   xml:space="preserve"><metadata
     id="metadata8"><rdf:RDF><cc:Work
         rdf:about=""><dc:format>image/svg+xml</dc:format><dc:type
           rdf:resource="http://purl.org/dc/dcmitype/StillImage" /><dc:title></dc:title></cc:Work></rdf:RDF></metadata><defs
     id="defs6"><clipPath
       id="clipPath16"><path
         d="m 0,841.89 595.28,0 L 595.28,0 0,0 0,841.89 z"
         id="path18" /></clipPath></defs><g
     transform="matrix(1.25,0,0,-1.25,0,1052.3625)"
     id="g10"><g
       id="g12"><g
         clip-path="url(#clipPath16)"
         id="g14"><g
           transform="translate(409.2002,463.0713)"
           id="g20"><path
             d="M 0,0 C 100.551,-113.379 205.818,-74.517 46.465,105.281 -105.187,276.387 -129.602,214.874 -117.771,146.268 -163.906,282.301 -55.387,251.616 63.026,124.207 257.8,-85.363 94.965,-163.244 0,0"
             id="path22"
             style="fill:#f58535;fill-opacity:1;fill-rule:nonzero;stroke:none" /></g><g
           transform="translate(387.2422,701.605)"
           id="g24"><path
             d="m 0,0 c 12.563,57.163 -20.059,85.905 -83.986,43.769 -146.682,-96.685 -42.585,-138.402 -16.561,-141.203 -92.739,-14.195 -128.94,79.69 -1.183,155.397 C 9.685,123.987 42.587,30.755 0,0"
             id="path26"
             style="fill:#f58535;fill-opacity:1;fill-rule:nonzero;stroke:none" /></g><g
           transform="translate(220.6987,719.9141)"
           id="g28"><path
             d="M 0,0 C -185.431,137.836 -152.749,3.64 -72.406,-86.919 4.333,-173.417 133.906,-245.807 77.15,-120.927 215.045,-294.817 -23.315,-243.066 -128.002,-71.539 -242.967,116.826 -111.442,130.739 0,0"
             id="path30"
             style="fill:#f58535;fill-opacity:1;fill-rule:nonzero;stroke:none" /></g><g
           transform="translate(85.3022,254.7559)"
           id="g32"><path
             d="m 0,0 c 94.931,-42.585 338.032,132.277 328.449,264.184 -3.231,44.502 -59.38,86.852 -115.523,85.183 C 435.614,287.451 123.72,19.851 26.839,65.453 -39.31,96.61 23.954,178.326 67.427,234 -10.662,174.72 -112.673,47.374 0,0"
             id="path34"
             style="fill:#f58535;fill-opacity:1;fill-rule:nonzero;stroke:none" /></g><g
           transform="translate(108,296.8896)"
           id="g36"><path
             d="m 0,0 c 94.931,-42.585 277.442,132.95 286,216 4.573,44.384 -39.629,92.902 -95.771,91.233 C 412.916,245.317 99.065,-26.229 4.142,23.319 -26.635,39.384 -38.628,65 4.751,137.504 -90,47 0,0 0,0"
             id="path38"
             style="fill:#fdb730;fill-opacity:1;fill-rule:nonzero;stroke:none" /></g><g
           transform="translate(185.2485,744.7437)"
           id="g40"><path
             d="m 0,0 c -137.02,92.146 -117.299,-21.19 -36.956,-111.749 76.739,-86.498 206.312,-158.887 149.557,-34.008 91.15,-142.097 -98.894,-90.097 -191.85,62.903 C -180.206,83.317 -58.249,61.219 0,0"
             id="path42"
             style="fill:#fdb730;fill-opacity:1;fill-rule:nonzero;stroke:none" /></g><g
           transform="translate(455.7793,420.9448)"
           id="g44"><path
             d="m 0,0 c 57.221,-34.055 151.221,-37.055 -4.315,141.896 -123.937,142.595 -159.57,129.872 -162.61,73.047 -8.28,83.002 59.012,65.305 172.146,-62.998 C 184.221,-51.055 42.259,-54.768 0,0"
             id="path46"
             style="fill:#fdb730;fill-opacity:1;fill-rule:nonzero;stroke:none" /></g><g
           transform="translate(387.2422,701.605)"
           id="g48"><path
             d="m 0,0 c 12.563,57.163 -20.059,85.905 -83.986,43.769 -146.682,-96.685 -42.585,-138.402 -16.561,-141.203 -67.695,-1.532 -116.811,73.011 10.945,148.719 C 21.813,117.309 15.354,17.977 0,0"
             id="path50"
             style="fill:#fdb730;fill-opacity:1;fill-rule:nonzero;stroke:none" /></g></g></g></g></svg>